<mxfile host="app.diagrams.net" modified="2024-02-25T19:42:01.427Z" agent="Mozilla/5.0 (X11; Linux x86_64) AppleWebKit/537.36 (KHTML, like Gecko) Chrome/122.0.0.0 Safari/537.36" version="22.1.18" etag="b4H0CiS3T1iYNwiDGbsX" type="github">
  <diagram name="PÃ¡gina-1" id="B3B3QkUJKE5WPxuRMHoo">
    <mxGraphModel>
      <root>
        <mxCell id="0" />
        <mxCell id="1" parent="0" />
      </root>
    </mxGraphModel>
  </diagram>
</mxfile>
